<svg width="185" height="442" viewBox="0 0 185 442" fill="none" xmlns="http://www.w3.org/2000/svg">
<g filter="url(#filter0_f_1_182)">
<path d="M9.0059 228.763C1.33633 231.552 0.387322 241.545 0.871512 246.194V252.004C0.871512 253.456 0 256.652 0 261.01V268.854C0 271.468 0.290514 272.049 0.871512 275.536C1.33631 278.324 1.06518 281.346 0.871512 282.508C0.871512 285.316 0.987723 291.107 1.45257 291.804C2.03363 292.676 4.35771 299.939 4.93874 301.391C5.51976 302.844 5.81028 304.006 5.81028 306.621V310.688C5.81028 313.012 6.68182 315.626 6.97233 317.951C7.26285 320.275 8.13439 322.308 9.00593 324.923C9.87747 327.537 9.58696 327.828 9.58696 329.281C9.58696 330.733 13.0731 337.125 13.9447 338.577C14.6419 339.739 16.753 344.29 17.7214 346.421C17.915 346.905 18.3605 348.106 18.5929 349.036C18.8834 350.198 20.336 352.812 20.917 354.265C21.498 355.717 21.498 357.17 22.0791 358.623C22.6601 360.075 22.9506 363.561 22.9506 364.142C22.9506 364.723 25.5652 371.986 26.4368 373.148C27.3083 374.31 28.4704 374.02 29.3419 374.31C30.2135 374.601 30.504 374.891 33.4091 374.891H39.5099H44.4486L47.9348 375.472C48.2253 375.957 48.8063 377.274 48.8063 378.668V382.154C48.8063 383.084 49.3874 385.059 49.6779 385.931C49.9684 389.804 50.6075 397.958 50.8399 399.585C51.1305 401.619 52.002 402.49 52.002 403.071V405.976C52.2925 406.751 52.9897 408.242 53.4546 408.01C54.0356 407.719 56.0692 408.01 57.2312 407.429C58.3933 406.848 58.9743 405.976 59.5554 405.395C60.1364 404.814 61.8795 405.395 64.2036 405.395C66.5277 405.395 67.9803 404.524 69.1423 403.943C70.3044 403.362 68.5613 402.781 69.1423 401.038C69.7233 399.294 69.1423 399.294 69.1423 397.551V393.775C69.1423 392.322 69.1423 391.741 70.0139 388.545C70.8854 385.35 70.0139 385.931 70.0139 384.188V379.54C70.0139 378.087 70.3044 377.215 70.0139 375.472C69.7233 373.729 69.7233 374.31 69.1423 373.148C68.5613 371.986 67.9803 372.277 67.9803 371.986V370.534L74.0811 369.662C74.7589 370.824 76.289 373.148 76.9862 373.148C77.8336 373.148 80.3289 380.014 81.5346 383.332L81.6344 383.607C82.7965 386.802 82.506 387.383 83.3775 389.417C84.249 391.451 85.7016 399.004 87.4447 401.038C89.1878 403.071 87.4447 403.652 87.4447 405.976V414.692V419.049C87.4447 421.083 87.7352 428.636 87.4447 430.089C87.2123 431.251 86.1858 438.514 85.7016 442H147.872C148.743 440.935 150.486 438.107 150.486 435.318V428.636C150.486 426.022 151.067 425.15 151.939 421.664C152.81 418.178 154.263 416.435 155.715 408.3C157.168 400.166 156.878 399.876 156.878 397.261C156.878 394.646 157.168 388.836 156.878 387.383C156.587 385.931 156.587 386.512 156.297 386.221C156.006 385.931 156.006 385.35 155.715 384.769C155.425 384.188 155.715 384.188 155.715 382.445C155.715 380.702 156.297 382.154 156.587 381.864C156.878 381.573 157.459 381.573 158.04 380.411C158.621 379.249 158.33 379.54 158.33 378.668C158.33 377.796 158.621 378.087 158.33 377.215C158.04 376.344 158.33 376.344 158.621 375.763C158.853 375.298 158.717 373.826 158.621 373.148C159.202 373.342 160.596 373.613 161.526 373.148C162.688 372.567 162.397 371.986 162.397 371.696C162.397 371.405 161.235 369.081 161.526 368.209C161.816 367.338 162.397 368.209 163.269 368.791C164.14 369.372 164.431 369.662 165.302 369.662C166.174 369.662 165.883 369.081 166.755 368.791C167.627 368.5 167.336 368.209 167.917 368.209H170.532C171.984 368.209 170.532 368.791 170.532 369.662C170.532 370.534 169.951 371.115 169.951 373.148C169.951 374.02 170.067 375.763 170.532 375.763H172.275H174.308C174.889 375.763 176.632 374.31 177.214 369.662C177.795 367.338 177.795 369.081 178.666 368.209C179.538 367.338 180.99 367.338 180.99 366.176V362.98V360.366C180.99 359.204 181.571 359.494 182.443 359.204C183.14 358.971 184.283 357.945 184.767 357.46C184.864 357.073 184.999 356.008 184.767 354.846C184.476 353.393 184.186 351.65 183.895 348.745C183.605 345.84 182.733 342.644 182.443 340.611C182.152 338.577 181.571 334.8 180.409 329.862C179.828 326.666 179.828 326.957 179.247 323.761C178.666 320.565 178.376 318.241 178.376 315.917C178.376 313.593 177.795 310.107 177.795 309.526C177.795 308.945 177.795 307.492 178.376 304.877C178.957 302.263 178.376 302.844 178.376 301.682C178.376 300.52 177.214 290.642 177.214 288.318V281.927C177.214 278.15 176.632 277.569 176.632 274.955V270.597C176.632 270.016 176.051 263.334 175.47 261.881C174.889 260.429 175.47 259.848 175.47 258.976C175.47 258.105 175.47 256.943 176.051 251.713C176.632 246.484 176.342 245.613 176.342 243.87V240.383C176.342 239.221 176.632 238.35 176.342 235.735C176.051 233.121 176.051 233.121 175.47 232.249C174.889 231.377 176.051 221.79 176.051 221.209C176.051 220.628 175.761 220.047 175.47 218.304C175.18 216.561 175.47 216.271 174.889 214.818C174.308 213.366 174.889 212.785 174.889 208.427C174.889 204.069 174.599 206.103 174.889 204.941C175.18 203.779 174.599 200.292 174.599 200.002C174.599 199.711 174.599 198.259 174.018 197.097C173.437 195.935 174.018 194.773 174.018 193.32C174.018 191.868 174.018 192.158 174.599 190.996C175.18 189.834 174.889 188.962 175.47 187.8C176.051 186.638 176.632 185.186 177.504 183.443C178.085 182.281 178.085 181.7 178.085 180.828V178.213C178.085 177.051 178.085 177.051 178.666 174.437C179.247 171.822 178.666 172.984 178.957 171.532C179.247 170.079 179.828 169.498 180.409 168.045C180.99 166.593 180.99 166.593 180.99 165.14V161.073V158.168C180.99 157.296 181.281 156.715 181.571 155.844C181.862 154.972 181.571 154.682 182.733 152.939C183.895 151.196 182.733 151.486 182.733 150.615V149.743C182.733 149.452 182.152 148.871 181.571 148.581C180.99 148.29 180.409 147.709 179.828 147.419C179.247 147.128 179.828 145.966 179.538 144.223C179.247 142.48 178.666 143.061 178.085 142.19C177.504 141.318 176.342 141.318 175.47 140.737C174.599 140.156 174.308 140.156 172.565 139.575C170.822 138.994 170.822 137.832 168.498 136.67C166.174 135.508 165.883 135.217 164.14 134.927C162.397 134.636 162.978 134.346 162.397 134.055C161.816 133.765 160.654 134.927 160.073 135.217C159.492 135.508 158.621 135.798 157.168 136.089C156.006 136.321 155.715 136.96 155.715 137.251L154.553 138.413C154.457 138.122 154.147 137.251 153.682 136.089C153.682 135.217 153.101 135.798 152.81 134.927C152.52 134.055 152.52 134.055 151.067 133.184C149.615 132.312 149.324 132.603 149.324 132.312C149.324 132.08 148.549 131.634 148.162 131.441C148.259 131.247 148.453 130.801 148.453 130.569C148.453 130.279 149.034 128.535 149.324 127.954C149.615 127.373 149.615 125.049 149.034 123.887C148.453 122.725 148.162 122.725 147.872 121.854C147.581 120.982 148.162 120.111 148.162 118.949C148.162 117.786 149.034 117.496 149.905 116.624C150.777 115.753 151.358 115.172 151.939 114.3C152.52 113.429 152.81 112.848 153.682 112.267C154.553 111.686 155.134 107.328 155.134 106.747C155.134 106.166 155.425 105.585 155.134 104.713C154.844 103.842 154.844 103.551 154.844 102.68C154.844 101.808 153.391 101.227 152.81 100.646C152.229 100.065 151.358 99.7746 149.905 99.4841C148.453 99.1936 149.034 98.9031 146.71 97.741C144.385 96.579 145.547 96.8695 144.966 95.9979C144.385 95.1264 143.223 94.8359 142.933 94.5454C142.642 94.2548 142.061 93.3833 142.061 93.0928V91.9307C142.061 91.3497 142.642 91.0592 142.933 90.1876C143.223 89.3161 143.514 89.3161 144.095 88.4446C144.676 87.573 144.966 86.992 145.257 86.1205C145.547 85.2489 146.419 84.3774 146.71 84.0869C147 83.7963 148.743 82.0533 149.324 81.7627C149.905 81.4722 150.777 80.6007 151.358 80.3102C151.939 80.0197 152.52 79.1481 153.391 78.8576C154.263 78.5671 156.006 78.2766 156.587 77.9861C157.168 77.6955 159.202 77.1145 159.492 77.1145H163.559C164.14 77.1145 165.302 76.824 165.883 76.5335C166.464 76.243 167.627 75.9525 167.917 74.7904C168.208 73.6284 169.079 73.6284 169.079 73.3378C169.079 73.0473 169.37 72.4663 169.951 71.5948C170.532 70.7232 169.951 70.4327 169.951 69.2706C169.951 68.1086 169.66 68.1086 169.37 67.5276C169.079 66.9465 169.079 66.656 168.498 66.075C167.917 65.494 168.208 65.2034 167.917 64.6224C167.627 64.0414 167.917 63.7509 167.627 62.0078C167.336 60.2647 167.627 61.1363 167.627 59.9742V59.1027C167.627 58.8121 167.336 58.5216 167.046 58.2311C166.813 57.9987 166.949 57.1659 167.046 56.7785C166.949 56.488 166.697 55.5003 166.464 53.8734C166.174 51.8398 165.883 52.7113 165.302 51.8398C164.721 50.9683 164.431 50.6777 164.431 50.3872C164.431 50.1548 163.463 49.903 162.978 49.8062C163.172 49.7094 163.734 49.3414 164.431 48.6442C165.012 48.0631 165.593 48.0631 166.174 47.7726C166.755 47.4821 166.755 46.6106 167.336 46.32C167.917 46.0295 167.627 44.8675 167.627 43.7054C167.627 42.5434 167.046 42.2528 166.464 41.6718C165.883 41.0908 165.883 40.8003 164.721 40.2192C163.559 39.6382 163.85 39.3477 162.688 38.7667C161.526 38.1857 161.526 37.8951 160.073 36.7331C158.621 35.571 159.202 35.8615 158.621 34.99C158.04 34.1185 158.04 34.1185 158.04 33.2469C158.04 32.3754 157.749 32.3754 157.459 31.5038C157.168 30.6323 157.168 30.3418 156.878 29.7607C156.587 29.1797 156.006 28.3082 155.715 27.7271C155.425 27.1461 155.425 26.8556 154.263 25.403C153.101 23.9505 153.101 25.1125 152.81 24.822C152.578 24.5896 151.939 25.1125 151.648 25.403C151.164 24.822 150.08 23.4275 149.615 22.4979L148.162 19.5928C147.581 18.4307 147 18.1402 146.129 17.2686L143.223 14.3635L140.318 11.4584C139.156 10.2963 138.575 9.42477 137.413 8.84374C136.251 8.26272 134.217 7.10066 132.765 5.9386C131.312 4.77654 130.731 5.06706 129.279 4.48604C127.826 3.90501 127.245 3.32398 125.793 3.32398C124.63 3.32398 116.98 1.19354 113.3 0.128326C112.526 0.0314882 110.86 -0.104085 110.395 0.128326C109.814 0.41884 108.943 0.41884 107.49 0.709354C106.038 0.999868 106.038 1.29038 103.713 2.16192C101.389 3.03347 99.6463 3.03347 97.3222 3.32398C94.9981 3.61449 95.2886 4.19552 94.417 4.48604C93.5455 4.77655 92.6739 5.9386 90.9309 7.10066C89.1878 8.26272 88.8973 7.9722 87.7352 8.84374C86.5732 9.71529 85.7016 10.2963 84.5396 11.4584C83.3775 12.6204 83.3775 13.7825 82.2154 14.654C81.2858 15.3513 79.1166 18.6244 78.1483 20.1738C77.6641 19.8833 76.6376 19.3022 76.4052 19.3022C76.1147 19.3022 75.8241 18.1402 75.2431 17.8497C74.6621 17.5592 74.0811 16.1066 73.7905 15.5256C73.5 14.9445 71.7569 14.654 70.5949 13.7825C69.4328 12.9109 69.4328 13.7825 69.1423 13.7825H67.1087C66.6439 13.7825 66.334 14.3635 66.2372 14.654C65.9467 14.8477 65.3075 15.2932 65.0751 15.5256C64.7846 15.8161 63.6226 15.8161 63.0415 15.8161C62.4605 15.8161 61.8795 16.1066 61.0079 16.1066C60.1364 16.1066 59.5554 16.3971 58.9743 16.6876C58.3933 16.9781 58.3933 16.9781 58.1028 17.2686C57.8123 17.5592 57.2312 18.1402 56.9407 18.7212C56.7083 19.186 56.0692 19.3022 55.7787 19.3022L55.1976 19.8833C55.1976 19.8833 54.3261 19.5928 54.0356 19.0117C53.8032 18.5469 53.7451 18.0433 53.7451 17.8497V15.8161C53.3577 16.2034 52.6411 17.0743 52.8735 17.4589C53.1641 17.9397 52.8735 18.4307 52.8735 18.7212C52.8735 19.0117 53.1641 19.5928 53.1641 19.8833C53.1641 20.1738 52.2925 20.4643 52.2925 21.3358C52.2925 22.2074 52.583 22.2074 52.583 22.7884C52.583 23.3694 52.583 23.66 51.421 23.66H50.8399C50.6075 23.66 49.9684 23.0789 49.6779 22.7884C49.4842 22.5947 48.9225 22.0912 48.2253 21.6264C48.2253 22.2074 48.2253 22.7884 49.0969 23.66C49.9684 24.5315 49.9684 24.241 50.8399 24.822C51.7115 25.403 51.421 25.6936 52.583 27.1461C53.5127 28.3082 53.5514 28.405 53.4546 28.3082V29.1797C53.3577 29.5671 53.106 30.3418 52.8735 30.3418C52.583 30.3418 51.7115 31.2133 51.421 31.2133C51.1305 31.2133 49.9684 32.0849 49.6779 32.0849C49.3874 32.0849 49.0969 32.6659 48.2253 33.5374C47.3538 34.409 47.3538 34.1185 46.4822 34.409C45.6107 34.6995 45.9012 35.571 45.3202 36.1521C44.8554 36.6169 44.1581 37.7015 43.8676 38.1857C43.3834 38.9604 42.3569 41.6137 42.1245 46.0295C42.415 43.9959 42.9961 43.9959 42.9961 43.1244C42.9961 42.2529 43.5771 42.5434 44.4486 40.2193C45.3202 37.8951 48.2253 36.1521 48.5158 35.571C48.8063 34.99 49.3874 34.409 49.6779 34.1185C49.9103 33.886 50.5494 33.6343 50.8399 33.5374C50.9368 33.6343 51.1305 33.9441 51.1305 34.409C51.1305 34.99 50.8399 34.99 49.9684 36.1521C49.0969 37.3141 49.0969 37.0236 49.0969 37.8951C49.0969 38.7667 48.8063 39.0572 49.0969 40.2193C49.3874 41.3813 49.6779 41.3813 49.6779 42.5434C49.6779 43.7054 49.6779 43.9959 49.9684 45.158C50.2589 46.32 50.2589 47.1916 50.8399 48.0631C51.421 48.9347 52.002 49.2252 52.583 49.5157C53.1641 49.8062 54.0356 50.0967 54.9071 50.0967C55.7787 50.0967 55.7787 49.8062 56.3597 49.5157C56.8245 49.2833 57.3281 49.2252 57.5218 49.2252C57.6186 49.1283 57.8123 48.8766 57.8123 48.6442C57.8123 48.3536 58.9743 47.4821 60.4269 47.4821C61.589 48.6442 64.7846 48.3536 65.3656 48.9347C65.9467 49.5157 64.7846 50.9683 64.7846 52.1303V55.907C64.7846 57.0691 64.7846 58.8121 65.3656 60.2647C65.9467 61.7173 64.7846 64.9129 65.3656 66.3655C65.9467 67.8181 66.5277 68.9801 66.5277 70.1422C66.5277 71.3042 67.6898 72.7568 67.6898 74.2094C67.6898 75.6619 68.2708 76.824 68.2708 78.8576V82.0532C68.2708 83.2153 67.6898 86.992 67.6898 88.154C67.6898 89.3161 66.8182 91.3497 66.8182 91.9307C66.8182 92.5118 66.8182 92.8023 66.5277 93.3833C66.2372 93.9643 65.9467 95.1264 65.3656 95.9979C64.7846 96.8695 65.0751 96.8695 64.7846 97.741C64.4941 98.6126 64.2036 99.1936 63.9131 100.065C63.6226 100.937 63.0415 101.518 62.751 102.099C62.4605 102.68 61.589 103.551 59.5554 107.037C61.8795 106.166 61.2984 106.166 61.8795 105.294C62.4605 104.423 65.0751 100.646 65.3656 100.646C65.6561 100.646 66.5277 97.4505 66.8182 96.8695C67.1087 96.2884 69.4328 91.3497 69.4328 90.4782C69.4328 89.7809 70.2075 88.6382 70.5949 88.154H72.6285C72.919 88.4446 73.5 89.1418 73.5 89.6066C73.5 90.1876 72.6285 91.6402 72.6285 92.5118V95.4169V98.322C72.6285 98.9031 72.0475 100.065 71.7569 100.646C71.4664 101.227 71.7569 102.099 68.8518 105.294C69.7233 104.423 70.5949 104.132 71.7569 103.261C72.919 102.389 73.5 100.937 74.0811 99.4841C74.6621 98.0315 75.5336 96.579 75.8241 95.9979C76.1147 95.4169 77.2767 92.2212 77.2767 90.4782V84.6679V82.0532C77.7609 81.8596 78.9617 81.6465 79.8913 82.3438C80.821 83.041 84.5396 83.7963 86.2826 84.0868L89.1878 82.9248L90.0593 84.0868C90.1562 84.8616 90.4079 86.5272 90.6404 86.992C90.9309 87.573 91.2214 88.7351 91.2214 89.6066C91.2214 90.4782 90.0593 91.9307 89.1878 93.0928C88.3162 94.2548 87.1542 94.2548 86.8637 95.4169C86.6313 96.3465 86.3795 98.5157 86.2826 99.4841C85.6048 100.259 84.1909 101.983 83.9585 102.68C83.668 103.551 81.9249 104.713 81.9249 105.294V109.362C81.9249 110.814 81.3439 111.976 81.0534 112.557C80.7629 113.138 79.0198 115.753 77.5672 117.205C76.4052 118.368 76.3083 120.788 76.4052 121.854L73.5 129.407C72.6285 132.506 70.8273 138.936 70.5949 139.866C70.3044 141.028 69.4328 148 69.4328 150.034C69.4328 152.067 65.9467 160.492 65.3656 161.945C64.7846 163.397 62.751 168.917 61.8795 171.532C61.1822 173.623 59.4585 178.213 58.6838 180.247C58.3933 180.344 57.638 180.363 56.9407 179.666C54.3261 176.18 49.0969 176.18 46.1917 175.889C43.2866 175.599 43.2866 179.666 43.2866 183.733C42.5893 185.128 42.6087 190.512 42.7056 193.03C42.7056 193.611 42.415 195.935 42.1245 195.935C41.834 195.935 40.9625 197.097 40.3814 197.387C39.8004 197.678 38.9289 198.84 38.9289 199.13C38.9289 199.421 38.0573 201.745 37.1858 202.907C36.3142 204.069 28.7609 212.494 26.7273 214.818C26.1463 215.69 17.1403 222.953 9.0059 228.763Z" fill="#BBBBBB" fill-opacity="0.5"/>
</g>
<defs>
<filter id="filter0_f_1_182" x="-17.0131" y="-17.0131" width="218.921" height="476.026" filterUnits="userSpaceOnUse" color-interpolation-filters="sRGB">
<feFlood flood-opacity="0" result="BackgroundImageFix"/>
<feBlend mode="normal" in="SourceGraphic" in2="BackgroundImageFix" result="shape"/>
<feGaussianBlur stdDeviation="8.5" result="effect1_foregroundBlur_1_182"/>
</filter>
</defs>
</svg>
