<svg width="16" height="16" viewBox="0 0 16 16" fill="none" xmlns="http://www.w3.org/2000/svg">
<g clip-path="url(#clip0_1_1120)">
<path fill-rule="evenodd" clip-rule="evenodd" d="M7.79543 3.28228L4.27429 6.76228L14.7817 6.81028C14.9425 6.81088 15.1016 6.84318 15.2499 6.90533C15.3982 6.96748 15.5327 7.05827 15.6459 7.17249C15.759 7.28671 15.8486 7.42212 15.9093 7.57098C15.9701 7.71984 16.0009 7.87922 16 8.04C15.9993 8.20068 15.9668 8.35964 15.9046 8.5078C15.8424 8.65595 15.7516 8.79039 15.6374 8.90342C15.5232 9.01646 15.3878 9.10588 15.239 9.16657C15.0903 9.22727 14.931 9.25804 14.7703 9.25714L4.26515 9.21028L7.73943 12.7257C7.85267 12.8397 7.94233 12.9749 8.00328 13.1236C8.06422 13.2723 8.09527 13.4316 8.09463 13.5923C8.09399 13.753 8.06169 13.912 7.99957 14.0602C7.93744 14.2084 7.84672 14.3429 7.73258 14.456C7.50181 14.6843 7.18985 14.8117 6.86521 14.8102C6.54057 14.8087 6.2298 14.6785 6.00115 14.448L0.286862 8.67771C0.100009 8.48781 -0.00375864 8.23146 -0.0016154 7.96506C0.000527848 7.69865 0.108407 7.44401 0.298291 7.25714L6.07315 1.54285C6.30372 1.31459 6.6155 1.1872 6.93995 1.1887C7.2644 1.1902 7.57498 1.32046 7.80343 1.55085C7.91663 1.66505 8.00623 1.80042 8.06709 1.94925C8.12796 2.09808 8.1589 2.25744 8.15816 2.41823C8.15741 2.57902 8.125 2.73808 8.06276 2.88634C8.00052 3.0346 7.90968 3.16914 7.79543 3.28228Z" fill="#123144"/>
</g>
<defs>
<clipPath id="clip0_1_1120">
<rect width="16" height="16" fill="white"/>
</clipPath>
</defs>
</svg>
