<svg width="16" height="16" viewBox="0 0 16 16" fill="none" xmlns="http://www.w3.org/2000/svg">
<g clip-path="url(#clip0_1_1381)">
<path d="M7.99331 1.33331C4.31331 1.33331 1.33331 4.31998 1.33331 7.99998C1.33331 11.68 4.31331 14.6666 7.99331 14.6666C11.68 14.6666 14.6666 11.68 14.6666 7.99998C14.6666 4.31998 11.68 1.33331 7.99331 1.33331ZM12.6133 5.33331H10.6466C10.4333 4.49998 10.1266 3.69998 9.72665 2.95998C10.9533 3.37998 11.9733 4.23331 12.6133 5.33331ZM7.99998 2.69331C8.55331 3.49331 8.98665 4.37998 9.27331 5.33331H6.72665C7.01331 4.37998 7.44665 3.49331 7.99998 2.69331ZM2.83998 9.33331C2.73331 8.90665 2.66665 8.45998 2.66665 7.99998C2.66665 7.53998 2.73331 7.09331 2.83998 6.66665H5.09331C5.03998 7.10665 4.99998 7.54665 4.99998 7.99998C4.99998 8.45331 5.03998 8.89331 5.09331 9.33331H2.83998ZM3.38665 10.6666H5.35331C5.56665 11.5 5.87331 12.3 6.27331 13.04C5.04665 12.62 4.02665 11.7733 3.38665 10.6666ZM5.35331 5.33331H3.38665C4.02665 4.22665 5.04665 3.37998 6.27331 2.95998C5.87331 3.69998 5.56665 4.49998 5.35331 5.33331ZM7.99998 13.3066C7.44665 12.5066 7.01331 11.62 6.72665 10.6666H9.27331C8.98665 11.62 8.55331 12.5066 7.99998 13.3066ZM9.55998 9.33331H6.43998C6.37998 8.89331 6.33331 8.45331 6.33331 7.99998C6.33331 7.54665 6.37998 7.09998 6.43998 6.66665H9.55998C9.61998 7.09998 9.66665 7.54665 9.66665 7.99998C9.66665 8.45331 9.61998 8.89331 9.55998 9.33331ZM9.72665 13.04C10.1266 12.3 10.4333 11.5 10.6466 10.6666H12.6133C11.9733 11.7666 10.9533 12.62 9.72665 13.04ZM10.9066 9.33331C10.96 8.89331 11 8.45331 11 7.99998C11 7.54665 10.96 7.10665 10.9066 6.66665H13.16C13.2666 7.09331 13.3333 7.53998 13.3333 7.99998C13.3333 8.45998 13.2666 8.90665 13.16 9.33331H10.9066Z" fill="white"/>
</g>
<defs>
<clipPath id="clip0_1_1381">
<rect width="16" height="16" fill="white"/>
</clipPath>
</defs>
</svg>
