<svg width="16" height="16" viewBox="0 0 16 16" fill="none" xmlns="http://www.w3.org/2000/svg">
<g clip-path="url(#clip0_1_1357)">
<path d="M12.6666 0H3.33331C2.96665 0 2.66665 0.3 2.66665 0.666667C2.66665 1.03333 2.96665 1.33333 3.33331 1.33333H12.6666C13.0333 1.33333 13.3333 1.03333 13.3333 0.666667C13.3333 0.3 13.0333 0 12.6666 0ZM3.33331 16H12.6666C13.0333 16 13.3333 15.7 13.3333 15.3333C13.3333 14.9667 13.0333 14.6667 12.6666 14.6667H3.33331C2.96665 14.6667 2.66665 14.9667 2.66665 15.3333C2.66665 15.7 2.96665 16 3.33331 16ZM13.3333 2.66667H2.66665C1.93331 2.66667 1.33331 3.26667 1.33331 4V12C1.33331 12.7333 1.93331 13.3333 2.66665 13.3333H13.3333C14.0666 13.3333 14.6666 12.7333 14.6666 12V4C14.6666 3.26667 14.0666 2.66667 13.3333 2.66667ZM7.99998 4.5C8.82665 4.5 9.49998 5.17333 9.49998 6C9.49998 6.82667 8.82665 7.5 7.99998 7.5C7.17331 7.5 6.49998 6.82667 6.49998 6C6.49998 5.17333 7.17331 4.5 7.99998 4.5ZM11.3333 11.3333H4.66665V10.3333C4.66665 9.22 6.88665 8.66667 7.99998 8.66667C9.11331 8.66667 11.3333 9.22 11.3333 10.3333V11.3333Z" fill="white"/>
</g>
<defs>
<clipPath id="clip0_1_1357">
<rect width="16" height="16" fill="white"/>
</clipPath>
</defs>
</svg>
