<svg width="130" height="130" viewBox="0 0 130 130" fill="none" xmlns="http://www.w3.org/2000/svg">
<path d="M71.092 92.5373C71.0919 90.6233 70.5594 88.7471 69.554 87.1184C68.5487 85.4898 67.1102 84.1728 65.3993 83.3149C63.6884 82.4569 61.7725 82.0917 59.866 82.2602C57.9594 82.4286 56.1373 83.124 54.6034 84.2687C55.211 82.7361 55.4529 81.083 55.31 79.4406C55.1671 77.7981 54.6433 76.2116 53.7801 74.807C52.9169 73.4024 51.7382 72.2183 50.3375 71.3489C48.9367 70.4794 47.3526 69.9485 45.7108 69.7982C44.0691 69.6479 42.4149 69.8824 40.8796 70.4832C39.3443 71.0839 37.9701 72.0343 36.8663 73.2588C35.7625 74.4834 34.9593 75.9485 34.5206 77.5377C34.0819 79.1269 34.0197 80.7964 34.339 82.4139C33.0101 83.9854 32.1839 85.92 31.9678 87.9668C29.6731 88.778 27.7391 90.3743 26.5075 92.4736C25.2759 94.5729 24.8261 97.04 25.2376 99.4388C25.6491 101.838 26.8954 104.014 28.7562 105.583C30.617 107.151 32.9725 108.012 35.4063 108.012H59.4073V105.396C60.2356 104.657 60.9397 103.789 61.4927 102.827C64.0981 102.646 66.5377 101.483 68.3193 99.573C70.1009 97.6634 71.0918 95.149 71.092 92.5373Z" fill="white"/>
<mask id="mask0_1_1042" style="mask-type:luminance" maskUnits="userSpaceOnUse" x="25" y="69" width="47" height="40">
<path d="M71.092 92.5373C71.0919 90.6233 70.5594 88.7471 69.554 87.1184C68.5487 85.4898 67.1102 84.1728 65.3993 83.3149C63.6884 82.4569 61.7725 82.0917 59.866 82.2602C57.9594 82.4286 56.1373 83.124 54.6034 84.2687C55.211 82.7361 55.4529 81.083 55.31 79.4406C55.1671 77.7981 54.6433 76.2116 53.7801 74.807C52.9169 73.4024 51.7382 72.2183 50.3375 71.3489C48.9367 70.4794 47.3526 69.9485 45.7108 69.7982C44.0691 69.6479 42.4149 69.8824 40.8796 70.4832C39.3443 71.0839 37.9701 72.0343 36.8663 73.2588C35.7625 74.4834 34.9593 75.9485 34.5206 77.5377C34.0819 79.1269 34.0197 80.7964 34.339 82.4139C33.0101 83.9854 32.1839 85.92 31.9678 87.9668C29.6731 88.778 27.7391 90.3743 26.5075 92.4736C25.2759 94.5729 24.8261 97.04 25.2376 99.4388C25.6491 101.838 26.8954 104.014 28.7562 105.583C30.617 107.151 32.9725 108.012 35.4063 108.012H59.4073V105.396C60.2356 104.657 60.9397 103.789 61.4927 102.827C64.0981 102.646 66.5377 101.483 68.3193 99.573C70.1009 97.6634 71.0918 95.149 71.092 92.5373Z" fill="white"/>
</mask>
<g mask="url(#mask0_1_1042)">
<path d="M43.303 67.4382C56.114 88.3227 46.0482 105.606 29.76 108.128C13.4718 110.651 52.8198 118.154 52.8198 118.154L64.2151 108.128L61.6411 73.682L50.0085 65.7474" fill="#EFF1F7"/>
</g>
<path d="M71.0921 92.5373C71.0919 90.6233 70.5594 88.7471 69.554 87.1184C68.5487 85.4898 67.1102 84.1728 65.3993 83.3149C63.6884 82.4569 61.7725 82.0917 59.866 82.2602C57.9595 82.4286 56.1373 83.124 54.6034 84.2687C55.211 82.7361 55.4529 81.083 55.31 79.4406C55.1671 77.7981 54.6433 76.2116 53.7801 74.807C52.9169 73.4024 51.7382 72.2183 50.3375 71.3489C48.9367 70.4794 47.3526 69.9485 45.7108 69.7982C44.0691 69.6479 42.4149 69.8824 40.8796 70.4832C39.3443 71.0839 37.9701 72.0343 36.8663 73.2588C35.7625 74.4834 34.9593 75.9485 34.5206 77.5377C34.0819 79.1269 34.0197 80.7964 34.339 82.4139C33.0101 83.9854 32.1839 85.92 31.9678 87.9668C29.6731 88.778 27.7391 90.3743 26.5075 92.4736C25.2759 94.5729 24.8261 97.04 25.2376 99.4388C25.6491 101.838 26.8954 104.014 28.7562 105.583C30.617 107.151 32.9725 108.012 35.4063 108.012H59.4073V105.396C60.2356 104.657 60.9397 103.789 61.4927 102.827C64.0981 102.646 66.5377 101.483 68.3193 99.573C70.1009 97.6634 71.0918 95.149 71.0921 92.5373Z" stroke="#020000" stroke-width="0.39" stroke-linecap="round" stroke-linejoin="round"/>
<path d="M100.626 108.128H52.3748C51.794 108.128 51.2193 108.01 50.6856 107.781C50.1518 107.552 49.6702 107.217 49.27 106.796C48.8699 106.375 48.5594 105.877 48.3576 105.333C48.1558 104.788 48.0669 104.208 48.0961 103.628L51.649 33.2549C51.7044 32.1575 52.1793 31.1233 52.9757 30.3662C53.772 29.6091 54.8288 29.1869 55.9276 29.1869H97.0741C98.1729 29.1869 99.2297 29.6091 100.026 30.3662C100.822 31.1234 101.297 32.1575 101.353 33.2549L104.905 103.628C104.935 104.208 104.846 104.788 104.644 105.333C104.442 105.877 104.132 106.375 103.731 106.796C103.331 107.217 102.85 107.552 102.316 107.781C101.782 108.01 101.207 108.128 100.626 108.128Z" fill="white"/>
<mask id="mask1_1_1042" style="mask-type:luminance" maskUnits="userSpaceOnUse" x="48" y="29" width="57" height="80">
<path d="M100.626 108.128H52.3748C51.794 108.128 51.2193 108.01 50.6856 107.781C50.1518 107.552 49.6702 107.217 49.27 106.796C48.8699 106.375 48.5594 105.877 48.3576 105.333C48.1558 104.788 48.0669 104.208 48.0961 103.628L51.649 33.2549C51.7044 32.1575 52.1793 31.1233 52.9757 30.3662C53.772 29.6091 54.8288 29.1869 55.9276 29.1869H97.0741C98.1729 29.1869 99.2297 29.6091 100.026 30.3662C100.822 31.1234 101.297 32.1575 101.353 33.2549L104.905 103.628C104.935 104.208 104.846 104.788 104.644 105.333C104.442 105.877 104.132 106.375 103.731 106.796C103.331 107.217 102.85 107.552 102.316 107.781C101.782 108.01 101.207 108.128 100.626 108.128Z" fill="white"/>
</mask>
<g mask="url(#mask1_1_1042)">
<path d="M64.7446 28.3253L67.2581 31.715H85.7435L88.9064 28.142L64.7446 28.3253Z" fill="#EFF1F7"/>
<path d="M38.2337 108.044C46.5051 98.3447 60.4141 107.495 85.853 108.044C111.292 108.593 105.674 78.9679 105.674 78.9679L111.292 104.607C111.292 104.607 110.743 112.254 110.194 113.718C109.645 115.182 60.3484 120.673 60.3484 120.673L42.6619 113.901" fill="#EFF1F7"/>
</g>
<path d="M100.626 108.128H52.3748C51.794 108.128 51.2193 108.01 50.6856 107.781C50.1518 107.552 49.6702 107.217 49.27 106.796C48.8699 106.375 48.5594 105.877 48.3576 105.333C48.1558 104.788 48.0669 104.208 48.0961 103.628L51.649 33.2549C51.7044 32.1575 52.1793 31.1233 52.9757 30.3662C53.772 29.6091 54.8288 29.1869 55.9276 29.1869H97.0741C98.1729 29.1869 99.2297 29.6091 100.026 30.3662C100.822 31.1234 101.297 32.1575 101.353 33.2549L104.905 103.628C104.935 104.208 104.846 104.788 104.644 105.333C104.442 105.877 104.132 106.375 103.731 106.796C103.331 107.217 102.85 107.552 102.316 107.781C101.782 108.01 101.207 108.128 100.626 108.128Z" stroke="#020000" stroke-width="0.39" stroke-linecap="round" stroke-linejoin="round"/>
<path d="M82.0285 25.8216V23.0143C82.0285 22.7113 81.9081 22.4207 81.6939 22.2065C81.4796 21.9922 81.189 21.8718 80.886 21.8718H72.1154C71.8124 21.8718 71.5218 21.9922 71.3076 22.2065C71.0933 22.4207 70.9729 22.7113 70.9729 23.0143V25.8216H68.9529C68.5034 25.8216 68.0724 26.0001 67.7546 26.3179C67.4368 26.6357 67.2583 27.0667 67.2583 27.5162V31.3512H85.7432V27.5162C85.7432 27.0667 85.5647 26.6357 85.2469 26.3179C84.9291 26.0001 84.4981 25.8216 84.0486 25.8216H82.0285ZM76.7267 27.7822C76.3666 27.8294 76.0008 27.7626 75.6806 27.5913C75.3604 27.42 75.102 27.1527 74.9415 26.827C74.7809 26.5012 74.7265 26.1334 74.7857 25.7751C74.8449 25.4169 75.0148 25.0861 75.2716 24.8294C75.5284 24.5726 75.8591 24.4027 76.2174 24.3435C76.5757 24.2843 76.9435 24.3388 77.2692 24.4993C77.595 24.6598 77.8622 24.9183 78.0335 25.2385C78.2049 25.5587 78.2716 25.9245 78.2244 26.2845C78.1745 26.6643 78.0006 27.0169 77.7298 27.2877C77.459 27.5585 77.1064 27.7323 76.7267 27.7822Z" fill="#5BC0F8" stroke="#020000" stroke-width="0.39" stroke-linecap="round" stroke-linejoin="round"/>
<path d="M94.757 92.7555C91.3749 95.7214 88.3819 99.1035 85.8493 102.821H51.684L55.1701 33.767H98.2893L100.603 86.8872C100.603 86.8872 99.1705 88.954 94.757 92.7555Z" fill="white" stroke="#020000" stroke-width="0.39" stroke-linecap="round" stroke-linejoin="round"/>
<path d="M86.8436 86.8022C89.8057 97.2074 87.6825 99.1007 85.8491 102.821C91.0433 97.7726 95.9679 92.454 100.602 86.8873C100.602 86.8873 94.7858 88.7989 86.8436 86.8022Z" fill="white" stroke="#020000" stroke-width="0.39" stroke-linecap="round" stroke-linejoin="round"/>
<path d="M64.7413 47.1386C64.6685 47.7715 64.3603 48.3537 63.8779 48.7697C63.3955 49.1858 62.7742 49.4051 62.1376 49.3841C61.8344 49.404 61.5304 49.3601 61.2452 49.2552C60.96 49.1504 60.7 48.9869 60.4819 48.7753C60.2638 48.5636 60.0926 48.3087 59.9792 48.0268C59.8658 47.7449 59.8128 47.4423 59.8236 47.1386C59.9088 46.5154 60.2216 45.9457 60.7019 45.5394C61.1821 45.133 61.7957 44.9188 62.4245 44.9379C62.7238 44.919 63.0239 44.9621 63.3058 45.0645C63.5878 45.1668 63.8455 45.3263 64.063 45.5329C64.2805 45.7394 64.453 45.9887 64.5697 46.265C64.6864 46.5413 64.7449 46.8387 64.7413 47.1386Z" fill="white" stroke="#020000" stroke-width="0.39" stroke-linecap="round" stroke-linejoin="round"/>
<path d="M92.4625 46.7466H67.7161C67.6191 46.7524 67.5219 46.7385 67.4305 46.7056C67.3391 46.6726 67.2554 46.6214 67.1845 46.555C67.1135 46.4886 67.0569 46.4084 67.018 46.3194C66.9791 46.2303 66.9588 46.1343 66.9583 46.0371C66.9792 45.8382 67.0749 45.6547 67.2261 45.5237C67.3774 45.3928 67.5728 45.3244 67.7726 45.3323H92.3604C92.5623 45.3259 92.7594 45.3943 92.9139 45.5244C93.0684 45.6545 93.1693 45.8371 93.1974 46.0371C93.2006 46.1334 93.1837 46.2292 93.1475 46.3185C93.1114 46.4077 93.057 46.4884 92.9877 46.5553C92.9184 46.6221 92.8359 46.6737 92.7454 46.7067C92.6549 46.7396 92.5585 46.7532 92.4625 46.7466Z" fill="white" stroke="#020000" stroke-width="0.39" stroke-linecap="round" stroke-linejoin="round"/>
<path d="M84.7984 48.9751H67.6269C67.5285 48.9806 67.4299 48.966 67.3374 48.9321C67.2448 48.8983 67.1601 48.8458 67.0884 48.7781C67.0168 48.7103 66.9598 48.6287 66.9208 48.5381C66.8818 48.4475 66.8618 48.3499 66.8618 48.2513C66.8819 48.0494 66.9782 47.8626 67.131 47.7291C67.2838 47.5955 67.4818 47.5251 67.6847 47.5323H84.7449C84.9475 47.525 85.1453 47.5953 85.2979 47.729C85.4504 47.8626 85.5462 48.0495 85.5656 48.2513C85.5653 48.35 85.545 48.4476 85.5057 48.5382C85.4665 48.6287 85.4092 48.7103 85.3375 48.778C85.2657 48.8458 85.1809 48.8981 85.0882 48.932C84.9955 48.9659 84.8969 48.9806 84.7984 48.9751Z" fill="white" stroke="#020000" stroke-width="0.39" stroke-linecap="round" stroke-linejoin="round"/>
<path d="M64.2117 57.057C64.149 57.734 63.8334 58.3625 63.3279 58.8171C62.8223 59.2717 62.1639 59.519 61.4841 59.5098C61.1602 59.5239 60.8368 59.4699 60.5351 59.3511C60.2333 59.2323 59.96 59.0514 59.7326 58.8201C59.5053 58.5889 59.3291 58.3124 59.2155 58.0087C59.1019 57.7049 59.0534 57.3807 59.0731 57.057C59.1494 56.3905 59.4702 55.776 59.9735 55.3324C60.4767 54.8887 61.1266 54.6475 61.7974 54.6554C62.117 54.642 62.4359 54.6948 62.734 54.8106C63.0321 54.9264 63.3031 55.1026 63.5299 55.3282C63.7566 55.5537 63.9342 55.8238 64.0516 56.1213C64.1689 56.4188 64.2235 56.7374 64.2117 57.057Z" fill="white" stroke="#020000" stroke-width="0.39" stroke-linecap="round" stroke-linejoin="round"/>
<path d="M93.1759 56.6287H67.3205C67.217 56.6328 67.1137 56.6158 67.017 56.5785C66.9203 56.5413 66.8322 56.4847 66.7582 56.4121C66.6842 56.3396 66.6258 56.2527 66.5866 56.1568C66.5474 56.0609 66.5282 55.958 66.5302 55.8544C66.5477 55.6418 66.6455 55.4439 66.8038 55.301C66.9621 55.1581 67.169 55.0809 67.3823 55.0853H93.0643C93.2797 55.0824 93.4885 55.1595 93.6504 55.3015C93.8124 55.4435 93.916 55.6405 93.9412 55.8544C93.9473 55.9569 93.9318 56.0595 93.8956 56.1556C93.8594 56.2517 93.8034 56.3391 93.7312 56.4122C93.659 56.4852 93.5723 56.5422 93.4766 56.5795C93.381 56.6168 93.2785 56.6336 93.1759 56.6287Z" fill="white" stroke="#020000" stroke-width="0.39" stroke-linecap="round" stroke-linejoin="round"/>
<path d="M85.1723 59.0626H67.223C67.1178 59.0663 67.013 59.0484 66.915 59.0101C66.817 58.9717 66.7279 58.9137 66.6531 58.8397C66.5783 58.7656 66.5195 58.677 66.4803 58.5794C66.441 58.4817 66.4221 58.3771 66.4248 58.2719C66.4414 58.0559 66.5397 57.8544 66.6998 57.7085C66.8598 57.5625 67.0695 57.4831 67.2861 57.4866H85.1137C85.3301 57.483 85.5396 57.5624 85.6993 57.7084C85.8591 57.8544 85.9568 58.0561 85.9726 58.2719C85.9749 58.3772 85.9557 58.4818 85.9162 58.5794C85.8767 58.677 85.8176 58.7656 85.7427 58.8396C85.6678 58.9136 85.5786 58.9716 85.4805 59.0099C85.3824 59.0483 85.2776 59.0662 85.1723 59.0626Z" fill="white" stroke="#020000" stroke-width="0.39" stroke-linecap="round" stroke-linejoin="round"/>
<path d="M63.6321 67.9075C63.5812 68.6341 63.258 69.3147 62.7271 69.8133C62.1963 70.312 61.4968 70.5921 60.7685 70.5976C60.4212 70.6044 60.0763 70.5381 59.7563 70.403C59.4362 70.2679 59.1482 70.0669 58.9109 69.8132C58.6736 69.5596 58.4923 69.2588 58.3788 68.9305C58.2652 68.6021 58.2221 68.2536 58.252 67.9075C58.318 67.1925 58.6471 66.5274 59.1755 66.0413C59.7039 65.5551 60.394 65.2824 61.112 65.2761C61.4543 65.2697 61.7941 65.3343 62.1101 65.4658C62.4262 65.5972 62.7116 65.7927 62.9483 66.0399C63.1851 66.2872 63.3681 66.5807 63.4858 66.9021C63.6034 67.2236 63.6533 67.5659 63.6321 67.9075Z" fill="white" stroke="#020000" stroke-width="0.39" stroke-linecap="round" stroke-linejoin="round"/>
<path d="M93.9562 67.4382H66.888C66.7771 67.4401 66.667 67.4192 66.5645 67.3769C66.4619 67.3347 66.3692 67.2718 66.2918 67.1923C66.2145 67.1128 66.1542 67.0184 66.1148 66.9147C66.0754 66.811 66.0576 66.7004 66.0625 66.5896C66.076 66.3618 66.176 66.1477 66.342 65.9911C66.5081 65.8345 66.7276 65.7472 66.9559 65.7471H93.834C94.0644 65.7488 94.2861 65.8359 94.4561 65.9915C94.6261 66.1471 94.7324 66.3602 94.7544 66.5896C94.7637 66.6991 94.7499 66.8094 94.7137 66.9131C94.6776 67.0169 94.62 67.112 94.5447 67.192C94.4694 67.2721 94.3781 67.3354 94.2767 67.3778C94.1753 67.4202 94.0661 67.4408 93.9562 67.4382Z" fill="white" stroke="#020000" stroke-width="0.39" stroke-linecap="round" stroke-linejoin="round"/>
<path d="M85.5817 70.1072H66.781C66.6683 70.1084 66.5564 70.0866 66.4524 70.043C66.3485 69.9995 66.2545 69.9351 66.1763 69.8538C66.0981 69.7726 66.0374 69.6762 65.9979 69.5706C65.9584 69.465 65.941 69.3524 65.9466 69.2398C65.959 69.0081 66.0595 68.7899 66.2274 68.6298C66.3953 68.4698 66.6181 68.3799 66.8501 68.3785H85.5172C85.749 68.3798 85.9716 68.4697 86.1391 68.6299C86.3067 68.79 86.4066 69.0083 86.4183 69.2398C86.4235 69.3525 86.4057 69.4651 86.3659 69.5706C86.3261 69.6762 86.2652 69.7725 86.1869 69.8537C86.1085 69.9349 86.0145 69.9993 85.9104 70.0429C85.8063 70.0864 85.6945 70.1083 85.5817 70.1072Z" fill="white" stroke="#020000" stroke-width="0.39" stroke-linecap="round" stroke-linejoin="round"/>
<path d="M63.6321 78.4966C63.5812 79.2232 63.258 79.9038 62.7271 80.4025C62.1963 80.9011 61.4968 81.1812 60.7685 81.1867C60.4212 81.1935 60.0763 81.1272 59.7563 80.9921C59.4362 80.857 59.1482 80.656 58.9109 80.4024C58.6736 80.1487 58.4923 79.8479 58.3788 79.5196C58.2652 79.1913 58.2221 78.8427 58.252 78.4966C58.318 77.7816 58.6471 77.1165 59.1755 76.6304C59.7039 76.1442 60.394 75.8715 61.112 75.8652C61.4543 75.8588 61.7941 75.9234 62.1102 76.0549C62.4262 76.1863 62.7116 76.3818 62.9483 76.629C63.1851 76.8762 63.3681 77.1698 63.4858 77.4912C63.6035 77.8127 63.6533 78.155 63.6321 78.4966Z" fill="white" stroke="#020000" stroke-width="0.39" stroke-linecap="round" stroke-linejoin="round"/>
<path d="M93.9563 78.0275H66.8881C66.7772 78.0294 66.6671 78.0085 66.5646 77.9662C66.462 77.924 66.3692 77.8611 66.2919 77.7817C66.2146 77.7022 66.1543 77.6077 66.1149 77.504C66.0754 77.4004 66.0576 77.2898 66.0626 77.179C66.0761 76.9511 66.1761 76.737 66.3421 76.5805C66.5081 76.4239 66.7277 76.3366 66.9559 76.3364H93.834C94.0645 76.3381 94.2861 76.4252 94.4561 76.5808C94.6262 76.7364 94.7324 76.9495 94.7545 77.179C94.7638 77.2885 94.7499 77.3987 94.7138 77.5025C94.6776 77.6063 94.6201 77.7013 94.5447 77.7814C94.4694 77.8614 94.3781 77.9247 94.2767 77.9671C94.1753 78.0095 94.0662 78.0301 93.9563 78.0275Z" fill="white" stroke="#020000" stroke-width="0.39" stroke-linecap="round" stroke-linejoin="round"/>
<path d="M85.5817 80.6965H66.781C66.6683 80.6978 66.5564 80.676 66.4524 80.6324C66.3485 80.5888 66.2545 80.5244 66.1763 80.4432C66.0981 80.3619 66.0374 80.2655 65.9979 80.1599C65.9584 80.0543 65.941 79.9418 65.9466 79.8291C65.959 79.5975 66.0595 79.3793 66.2274 79.2192C66.3953 79.0591 66.6181 78.9692 66.8501 78.9679H85.5172C85.7491 78.9691 85.9716 79.059 86.1392 79.2192C86.3067 79.3794 86.4066 79.5976 86.4183 79.8291C86.4235 79.9418 86.4057 80.0544 86.3659 80.16C86.3261 80.2656 86.2652 80.3619 86.1869 80.4431C86.1085 80.5243 86.0145 80.5886 85.9104 80.6322C85.8063 80.6758 85.6945 80.6977 85.5817 80.6965Z" fill="white" stroke="#020000" stroke-width="0.39" stroke-linecap="round" stroke-linejoin="round"/>
<path d="M37.7507 84.3716L37.2524 85.0966" stroke="#020000" stroke-width="0.39" stroke-linecap="round" stroke-linejoin="round"/>
<path d="M80.9516 38.011L80.2236 39.2336" stroke="#020000" stroke-width="0.39" stroke-linecap="round" stroke-linejoin="round"/>
<path d="M80.7012 95.8523C79.7686 96.8196 78.6766 97.6193 77.4729 98.2165" stroke="#020000" stroke-width="0.39" stroke-linecap="round" stroke-linejoin="round"/>
<path d="M64.7809 90.7185L64.0546 91.8203" stroke="#020000" stroke-width="0.39" stroke-linecap="round" stroke-linejoin="round"/>
</svg>
