<svg width="78" height="24" viewBox="0 0 78 24" fill="none" xmlns="http://www.w3.org/2000/svg">
<line opacity="0.14" x1="0.5" y1="3" x2="0.499999" y2="21" stroke="#222222"/>
<path d="M22 14C23.66 14 25 12.66 25 11V5C25 3.34 23.66 2 22 2C20.34 2 19 3.34 19 5V11C19 12.66 20.34 14 22 14ZM27.91 11C27.42 11 27.01 11.36 26.93 11.85C26.52 14.2 24.47 16 22 16C19.53 16 17.48 14.2 17.07 11.85C16.99 11.36 16.58 11 16.09 11C15.48 11 15 11.54 15.09 12.14C15.58 15.14 17.98 17.49 21 17.92V20C21 20.55 21.45 21 22 21C22.55 21 23 20.55 23 20V17.92C26.02 17.49 28.42 15.14 28.91 12.14C29.01 11.54 28.52 11 27.91 11Z" fill="#8E8E93"/>
<line opacity="0.14" x1="44.5" y1="3" x2="44.5" y2="21" stroke="#222222"/>
<g clip-path="url(#clip0_1_1183)">
<path d="M57.4 20.4L74.85 12.92C75.66 12.57 75.66 11.43 74.85 11.08L57.4 3.60002C56.74 3.31002 56.01 3.80002 56.01 4.51002L56 9.12002C56 9.62002 56.37 10.05 56.87 10.11L71 12L56.87 13.88C56.37 13.95 56 14.38 56 14.88L56.01 19.49C56.01 20.2 56.74 20.69 57.4 20.4Z" fill="#8E8E93"/>
</g>
<defs>
<clipPath id="clip0_1_1183">
<rect width="24" height="24" fill="white" transform="translate(54)"/>
</clipPath>
</defs>
</svg>
