<svg width="24" height="24" viewBox="0 0 24 24" fill="none" xmlns="http://www.w3.org/2000/svg">
<g clip-path="url(#clip0_1_676)">
<path d="M11 13V3.58998C11 3.09998 10.37 2.89998 10.09 3.29998L3.55 12.71C3.32 13.04 3.56 13.5 3.96 13.5H10.5C10.78 13.5 11 13.28 11 13ZM20.99 12.98C20.72 7.06997 15.9 2.31998 13.4 1.22998C13.03 1.06998 12.63 1.42998 12.73 1.81998C13.03 2.94998 13.49 5.09998 13.49 7.49998C13.49 9.93998 13 11.89 12.71 12.85C12.61 13.17 12.85 13.5 13.19 13.5H20.47C20.76 13.5 21 13.26 20.99 12.98ZM20.62 15H3.38C2.65 15 2.16 15.76 2.46 16.42C2.89 17.34 3.53 18.13 4.32 18.73C4.7 18.57 5.06 18.35 5.38 18.1C5.73 17.81 6.25 17.81 6.61 18.1C7.28 18.63 8.1 19 9 19C9.9 19 10.72 18.63 11.39 18.09C11.74 17.81 12.26 17.81 12.61 18.09C13.28 18.63 14.1 19 15 19C15.9 19 16.72 18.63 17.39 18.09C17.74 17.8 18.26 17.81 18.62 18.09C18.94 18.35 19.29 18.57 19.68 18.72C20.47 18.12 21.11 17.33 21.54 16.41C21.84 15.76 21.35 15 20.62 15ZM22 22C22 21.45 21.55 21 21 21C20.13 21 19.27 20.76 18.47 20.3C18.18 20.14 17.82 20.13 17.53 20.3C15.94 21.2 14.06 21.2 12.47 20.3C12.18 20.14 11.82 20.14 11.53 20.3C9.94 21.2 8.06 21.2 6.47 20.3C6.18 20.14 5.82 20.14 5.53 20.3C4.73 20.76 3.87 21 3 21C2.45 21 2 21.45 2 22C2 22.55 2.45 23 3 23C4.15 23 5.3 22.69 6.33 22.06C7.99 23.17 10.11 23.07 11.91 22.2C13.82 23.25 16.08 23.27 18 22.25C18.95 22.75 19.97 23 21 23C21.55 23 22 22.55 22 22Z" fill="#5BC0F8"/>
</g>
<defs>
<clipPath id="clip0_1_676">
<rect width="24" height="24" fill="white"/>
</clipPath>
</defs>
</svg>
