<svg width="24" height="24" viewBox="0 0 24 24" fill="none" xmlns="http://www.w3.org/2000/svg">
<g clip-path="url(#clip0_1_505)">
<path d="M12 1.99998C6.48 1.99998 2 6.47999 2 12C2 17.52 6.48 22 12 22C17.52 22 22 17.52 22 12C22 6.47999 17.52 1.99998 12 1.99998ZM12 4.99999C13.66 4.99999 15 6.33999 15 7.99999C15 9.65999 13.66 11 12 11C10.34 11 9 9.65999 9 7.99999C9 6.33999 10.34 4.99999 12 4.99999ZM12 19.2C9.5 19.2 7.29 17.92 6 15.98C6.03 13.99 10 12.9 12 12.9C13.99 12.9 17.97 13.99 18 15.98C16.71 17.92 14.5 19.2 12 19.2Z" fill="#8E8E93"/>
</g>
<defs>
<clipPath id="clip0_1_505">
<rect width="24" height="24" fill="white"/>
</clipPath>
</defs>
</svg>
